<?xml version="1.0" standalone="no"?><svg xmlns="http://www.w3.org/2000/svg" viewBox="0 0 1440 320"><path fill="#7A9D54" fill-opacity="1" d="M0,96L16,122.7C32,149,64,203,96,229.3C128,256,160,256,192,234.7C224,213,256,171,288,165.3C320,160,352,192,384,176C416,160,448,96,480,96C512,96,544,160,576,186.7C608,213,640,203,672,213.3C704,224,736,256,768,261.3C800,267,832,245,864,234.7C896,224,928,224,960,202.7C992,181,1024,139,1056,128C1088,117,1120,139,1152,122.7C1184,107,1216,53,1248,74.7C1280,96,1312,192,1344,213.3C1376,235,1408,181,1424,154.7L1440,128L1440,0L1424,0C1408,0,1376,0,1344,0C1312,0,1280,0,1248,0C1216,0,1184,0,1152,0C1120,0,1088,0,1056,0C1024,0,992,0,960,0C928,0,896,0,864,0C832,0,800,0,768,0C736,0,704,0,672,0C640,0,608,0,576,0C544,0,512,0,480,0C448,0,416,0,384,0C352,0,320,0,288,0C256,0,224,0,192,0C160,0,128,0,96,0C64,0,32,0,16,0L0,0Z"></path></svg>